{"glyphs":{"0":{"ha":561,"x_min":41,"x_max":520,"o":"m 265 559 q 191 524 222 555 q 154 435 154 488 l 154 208 q 194 113 154 153 q 286 75 233 75 q 371 110 336 75 q 408 199 408 146 l 408 425 q 368 520 408 480 q 276 559 329 559 q 265 559 276 559 m 296 -33 q 276 -33 290 -33 q 109 35 177 -33 q 41 199 41 103 l 41 425 q 112 595 41 524 q 286 667 184 667 q 453 598 384 667 q 520 435 520 531 l 520 208 q 450 39 520 109 q 296 -33 386 -25 z "},"1":{"ha":317,"x_min":20,"x_max":256,"o":"m 256 0 l 143 0 l 143 509 l 56 475 l 20 573 l 256 667 l 256 0 z "},"2":{"ha":549,"x_min":20,"x_max":509,"o":"m 277 108 l 504 108 l 504 0 l 20 0 l 359 336 q 395 425 395 372 q 355 521 395 481 q 264 559 317 559 q 178 524 214 559 q 142 435 142 489 l 141 435 l 29 435 q 100 595 33 528 q 273 667 172 667 q 441 599 372 667 q 509 435 509 531 q 437 265 509 336 l 277 108 z "},"3":{"ha":552,"x_min":41,"x_max":552,"o":"m 476 130 q 552 -54 552 54 q 473 -243 552 -163 q 302 -323 401 -315 q 279 -323 295 -323 l 45 -323 l 45 -216 l 289 -216 q 394 -172 351 -216 q 438 -63 438 -128 q 391 52 438 4 q 279 98 345 98 q 174 55 218 98 l 96 126 l 259 289 q 303 398 303 333 q 256 513 303 465 q 144 559 210 559 q 41 518 84 559 l 41 643 q 154 667 94 667 q 340 591 264 667 q 416 408 416 515 q 338 218 416 297 l 323 204 q 476 130 413 193 z "},"4":{"ha":646,"x_min":0,"x_max":605,"o":"m 605 234 l 605 126 l 499 126 l 499 0 l 387 0 l 387 126 l 0 126 l 182 642 l 298 642 l 155 234 l 387 234 l 387 642 l 499 642 l 499 234 l 605 234 z "},"5":{"ha":605,"x_min":61,"x_max":585,"o":"m 61 95 l 61 642 l 435 642 l 435 534 l 174 534 l 174 225 q 299 253 235 253 q 502 169 418 253 q 585 -31 585 86 q 498 -237 585 -151 q 314 -323 422 -313 q 289 -323 306 -323 l 72 -323 l 72 -216 l 298 -216 q 420 -165 370 -216 q 471 -40 471 -114 q 417 91 471 37 q 289 144 363 144 q 168 95 217 144 l 61 95 z "},"6":{"ha":663,"x_min":41,"x_max":622,"o":"m 41 250 q 66 369 41 308 l 221 745 l 342 1038 l 460 1038 l 251 531 q 336 543 292 543 q 540 460 456 543 q 622 260 622 378 q 536 54 622 139 q 351 -33 460 -23 q 326 -33 343 -33 q 123 50 207 -33 q 41 250 41 133 m 168 329 q 154 260 154 296 q 208 128 154 182 q 336 75 262 75 q 458 125 408 75 q 509 250 509 176 q 454 382 509 327 q 326 435 401 435 q 319 435 324 435 q 312 435 315 435 q 205 385 249 429 q 170 334 184 364 l 168 329 z "},"7":{"ha":559,"x_min":41,"x_max":559,"o":"m 159 -323 l 41 -323 l 397 535 l 52 535 l 52 642 l 559 642 l 159 -323 z "},"8":{"ha":692,"x_min":41,"x_max":652,"o":"m 490 -174 q 538 -91 538 -138 q 485 0 538 -39 q 341 43 426 43 q 317 42 332 43 q 202 2 250 37 q 154 -81 154 -34 q 208 -172 154 -133 q 351 -216 268 -216 q 490 -174 433 -216 m 209 506 q 154 374 154 451 q 212 236 154 292 q 351 179 271 179 q 483 233 428 179 q 538 365 538 288 q 479 503 538 446 q 341 559 421 559 q 209 506 264 559 m 559 85 q 652 -81 652 17 q 625 -178 652 -133 q 554 -257 600 -224 q 374 -322 477 -314 q 341 -323 353 -323 q 134 -260 219 -323 q 41 -91 41 -191 q 67 6 41 -39 q 138 83 91 48 q 187 113 166 102 q 128 157 153 132 q 41 365 41 243 q 132 578 41 489 q 351 667 223 667 q 564 581 477 667 q 652 374 652 496 q 561 161 652 250 q 505 117 534 135 q 559 85 532 104 z "},"9":{"ha":663,"x_min":41,"x_max":623,"o":"m 496 305 q 509 375 509 338 q 454 506 509 451 q 326 559 401 559 q 319 559 324 559 q 312 559 315 559 q 205 509 249 553 q 154 384 154 458 q 208 252 154 307 q 336 199 262 199 q 458 249 408 199 q 494 300 480 271 l 496 305 m 623 384 q 597 265 623 328 l 353 -323 l 235 -323 l 412 103 q 351 92 384 94 q 327 91 335 91 q 123 174 207 91 q 41 374 41 257 q 127 581 41 494 q 336 667 214 667 q 540 584 456 667 q 623 384 623 501 z "}," ":{"ha":339,"x_min":0,"x_max":0,"o":""},"!":{"ha":315,"x_min":81,"x_max":233,"o":"m 212 130 q 222 119 212 130 q 233 77 233 109 q 211 22 233 45 q 158 0 189 0 q 104 22 126 0 q 81 77 81 45 q 104 130 81 108 q 158 152 126 152 q 212 130 190 152 m 227 1038 l 203 272 l 110 272 l 85 1038 l 227 1038 z "},"\"":{"ha":339,"x_min":41,"x_max":298,"o":"m 277 833 l 212 833 l 191 1038 l 298 1038 l 277 833 m 126 833 l 62 833 l 41 1038 l 148 1038 l 126 833 z "},"#":{"ha":871,"x_min":0,"x_max":871,"o":"m 721 132 l 550 132 l 485 -33 l 373 -33 l 437 132 l 278 132 l 214 -33 l 102 -33 l 166 132 l 0 132 l 43 239 l 209 239 l 272 399 l 107 399 l 150 507 l 314 507 l 367 642 l 479 642 l 427 507 l 586 507 l 638 642 l 750 642 l 698 507 l 871 507 l 828 399 l 656 399 l 592 239 l 764 239 l 721 132 m 480 239 l 543 399 l 384 399 l 321 239 l 480 239 z "},"$":{"ha":614,"x_min":20,"x_max":573,"o":"m 361 83 q 432 118 404 90 q 460 180 460 146 q 459 193 460 185 q 416 245 453 227 q 335 264 384 262 l 335 79 q 343 79 339 79 q 352 81 347 80 q 361 83 357 82 m 144 446 q 236 374 153 388 l 236 555 q 224 553 233 554 q 165 520 189 547 q 142 460 142 494 q 144 446 142 456 m 571 220 q 573 189 573 210 q 515 51 573 111 q 372 -24 457 -9 q 335 -28 359 -26 l 335 -138 l 236 -138 l 236 -28 q 20 38 111 -14 l 85 132 q 236 82 148 96 l 236 264 q 119 297 168 270 q 32 418 47 338 q 29 451 29 433 q 81 585 29 526 q 214 659 134 645 q 236 662 229 661 l 236 764 l 335 764 l 335 661 q 509 597 431 647 l 441 505 q 335 549 393 536 l 335 372 q 475 342 415 372 q 571 220 556 301 z "},"%":{"ha":1118,"x_min":41,"x_max":1077,"o":"m 788 667 l 912 667 l 340 -323 l 216 -323 l 788 667 m 839 -216 q 927 -180 891 -216 q 964 -87 964 -142 q 924 11 964 -30 q 829 51 884 51 q 741 14 777 51 q 703 -78 703 -23 q 744 -176 703 -136 q 839 -216 783 -216 m 850 -323 q 829 -323 843 -323 q 659 -254 728 -323 q 590 -87 590 -184 q 662 85 590 14 q 838 159 735 159 q 1008 89 939 159 q 1077 -78 1077 19 q 1005 -250 1077 -178 q 850 -323 940 -315 m 269 559 q 191 523 223 555 q 153 431 153 485 q 195 332 153 374 q 289 293 234 293 q 377 329 341 293 q 415 421 415 367 q 374 519 415 479 q 279 559 334 559 q 274 559 277 559 q 269 559 270 559 m 300 186 q 279 184 287 184 q 109 254 179 184 q 41 421 41 324 q 113 593 41 522 q 289 667 186 667 q 459 597 389 667 q 528 431 528 528 q 456 258 528 330 q 300 186 391 193 z "},"&":{"ha":861,"x_min":41,"x_max":841,"o":"m 398 75 q 510 103 458 75 q 594 180 562 131 l 375 559 q 227 495 289 553 q 154 322 154 426 q 227 146 154 218 q 398 75 298 75 m 841 522 l 720 194 l 834 -1 l 700 -1 l 651 82 q 581 23 621 50 q 418 -32 507 -24 q 388 -33 397 -33 q 142 68 243 -33 q 67 181 93 117 q 41 313 41 244 q 70 453 41 388 q 151 568 98 517 q 317 658 222 635 l 288 709 q 259 816 259 758 q 328 975 259 909 q 484 1038 395 1038 q 545 1030 515 1038 l 504 926 q 475 930 490 930 q 405 902 435 930 q 372 825 372 871 q 388 767 372 794 l 649 318 l 724 522 l 841 522 z "},"'":{"ha":189,"x_min":41,"x_max":148,"o":"m 126 833 l 62 833 l 41 1038 l 148 1038 l 126 833 z "},"(":{"ha":328,"x_min":41,"x_max":308,"o":"m 303 1038 q 192 726 231 899 q 154 363 154 552 q 194 -6 154 172 q 308 -323 233 -183 l 178 -323 q 76 -5 112 -179 q 41 354 41 169 q 182 1038 41 737 l 303 1038 z "},")":{"ha":328,"x_min":20,"x_max":288,"o":"m 150 1038 q 288 363 288 741 q 251 -1 288 176 q 146 -323 214 -177 l 25 -323 q 136 -10 98 -184 q 174 354 174 165 q 135 722 174 546 q 20 1038 95 898 l 150 1038 z "},"*":{"ha":281,"x_min":41,"x_max":241,"o":"m 241 962 l 227 920 l 174 935 l 201 882 l 161 861 l 138 918 l 116 864 l 77 879 l 106 937 l 47 920 l 41 962 l 97 973 l 48 1011 l 77 1045 l 120 1006 l 117 1067 l 161 1067 l 158 1004 l 202 1044 l 228 1012 l 180 975 l 241 962 z "},"+":{"ha":558,"x_min":81,"x_max":477,"o":"m 477 384 l 477 276 l 333 276 l 333 111 l 226 111 l 226 276 l 81 276 l 81 384 l 226 384 l 226 549 l 333 549 l 333 384 l 477 384 z "},",":{"ha":233,"x_min":41,"x_max":193,"o":"m 181 36 l 98 -88 l 71 -71 l 109 1 q 60 25 80 4 q 41 76 41 47 q 63 130 41 107 q 117 152 85 152 q 170 130 148 152 q 193 76 193 107 q 181 36 193 54 z "},"-":{"ha":559,"x_min":81,"x_max":477,"o":"m 81 276 l 81 384 l 477 384 l 477 276 l 81 276 z "},".":{"ha":233,"x_min":41,"x_max":193,"o":"m 171 130 q 182 119 171 130 q 193 77 193 109 q 171 22 193 45 q 117 0 149 0 q 63 22 85 0 q 41 77 41 45 q 63 130 41 108 q 117 152 85 152 q 171 130 149 152 z "},"/":{"ha":731,"x_min":-20,"x_max":751,"o":"m -20 -278 l 628 1111 l 751 1111 l 104 -278 l -20 -278 z "},":":{"ha":321,"x_min":81,"x_max":240,"o":"m 212 130 q 222 119 212 130 q 233 77 233 109 q 211 22 233 45 q 158 0 189 0 q 104 22 126 0 q 81 77 81 45 q 104 130 81 108 q 158 152 126 152 q 212 130 190 152 m 240 567 q 218 513 240 535 q 165 490 196 490 q 111 513 133 490 q 88 567 88 536 q 111 620 88 598 q 165 642 133 642 q 218 620 197 642 q 240 567 240 598 z "},";":{"ha":315,"x_min":79,"x_max":233,"o":"m 233 567 q 211 513 233 535 q 158 490 189 490 q 104 513 126 490 q 81 567 81 536 q 104 620 81 598 q 158 642 126 642 q 212 620 190 642 q 233 567 233 598 m 212 23 l 102 -80 l 79 -56 l 133 4 q 103 22 116 9 q 81 76 81 44 q 103 130 81 108 q 157 152 125 152 q 211 130 189 152 q 233 76 233 107 q 212 23 233 46 z "},"<":{"ha":621,"x_min":20,"x_max":601,"o":"m 20 317 l 601 669 l 601 547 l 231 321 l 595 100 l 595 -33 l 20 317 z "},"=":{"ha":645,"x_min":71,"x_max":564,"o":"m 71 545 m 71 289 m 81 421 l 81 529 l 564 529 l 564 421 l 81 421 m 81 131 l 81 239 l 564 239 l 564 131 l 81 131 z "},">":{"ha":621,"x_min":20,"x_max":601,"o":"m 601 320 l 20 -33 l 20 90 l 391 315 l 26 536 l 26 669 l 601 320 z "},"?":{"ha":715,"x_min":20,"x_max":675,"o":"m 582 972 q 675 747 675 880 q 578 515 675 611 q 404 422 505 441 l 404 276 l 291 276 l 291 525 l 353 525 q 500 586 439 525 q 562 737 562 648 q 496 895 562 829 q 342 959 432 959 q 195 898 256 959 q 134 747 134 836 l 132 747 l 20 747 q 117 969 24 876 q 353 1067 214 1067 q 582 972 488 1067 m 296 22 q 285 34 296 22 q 274 76 274 45 q 296 130 274 107 q 350 152 319 152 q 404 130 381 152 q 426 76 426 107 q 404 22 426 45 q 350 0 381 0 q 296 22 319 0 z "},"@":{"ha":1131,"x_min":81,"x_max":1050,"o":"m 665 490 l 674 565 q 620 586 653 578 q 564 594 587 594 q 481 557 516 594 q 445 465 445 519 q 475 385 445 417 q 546 355 505 355 q 629 392 593 355 q 665 490 658 422 m 802 636 l 760 134 q 829 193 798 159 q 913 325 884 250 q 943 479 943 399 q 833 760 943 645 q 713 845 781 815 q 570 874 645 874 q 425 844 494 874 q 302 757 355 814 q 218 625 248 699 q 189 470 189 551 q 299 189 189 304 q 419 105 351 134 q 562 75 487 75 l 552 -32 q 374 10 459 -28 q 224 119 290 49 q 118 284 155 191 q 81 479 81 378 q 118 671 81 580 q 221 833 154 762 q 377 943 289 905 q 562 981 465 981 q 753 943 663 981 q 908 830 844 905 q 1050 470 1050 663 q 1014 278 1050 370 q 911 115 978 186 q 749 3 840 41 q 637 -28 694 -20 l 663 283 q 545 248 608 248 q 389 319 450 248 q 336 465 336 380 q 336 484 336 477 q 409 637 344 574 q 564 701 475 701 q 653 690 606 701 q 729 667 701 678 q 802 636 758 656 z "},"A":{"ha":1130,"x_min":-20,"x_max":1150,"o":"m 562 806 l 371 458 l 752 458 l 562 806 m 303 337 l 118 0 l -20 0 l 567 1068 l 1150 0 l 1002 0 l 818 337 l 303 337 z "},"B":{"ha":878,"x_min":81,"x_max":837,"o":"m 659 165 q 709 285 709 213 q 658 408 709 357 q 538 458 608 458 l 463 458 l 209 458 l 209 121 l 549 121 q 659 165 614 121 m 463 917 l 209 917 l 209 580 l 474 580 q 583 623 536 580 q 633 743 633 671 q 583 867 633 816 q 463 917 532 917 m 753 496 q 837 295 837 412 q 812 179 837 234 q 745 83 789 125 q 563 1 667 9 q 538 0 555 0 l 81 0 l 81 1038 l 473 1038 q 678 954 594 1038 q 761 753 761 871 q 736 637 761 692 q 678 550 715 589 q 753 496 720 530 z "},"C":{"ha":951,"x_min":41,"x_max":890,"o":"m 890 208 l 890 57 q 635 -31 772 -20 q 587 -32 619 -32 q 377 9 477 -32 q 199 127 277 50 q 82 303 123 204 q 41 512 41 403 q 83 723 41 623 q 203 903 125 824 q 385 1024 283 982 q 599 1067 487 1067 q 890 983 758 1067 l 890 819 q 751 913 829 880 q 587 945 673 945 q 427 913 504 945 q 292 823 351 882 q 200 685 232 763 q 168 522 168 608 q 201 356 168 435 q 295 216 233 277 q 435 122 356 155 q 599 90 513 90 q 756 120 681 90 q 890 208 831 151 z "},"D":{"ha":958,"x_min":81,"x_max":918,"o":"m 208 121 l 401 121 q 559 152 481 121 q 689 235 637 182 q 790 514 790 336 q 686 800 790 695 q 552 885 631 854 q 389 917 472 917 l 208 917 l 208 121 m 436 2 q 390 0 412 0 l 81 0 l 81 1038 l 401 1038 q 609 998 509 1038 q 781 887 710 958 q 887 718 852 816 q 918 524 918 631 q 886 329 918 419 q 778 155 851 228 q 623 50 713 90 q 436 2 534 10 z "},"E":{"ha":847,"x_min":81,"x_max":806,"o":"m 209 121 l 806 121 l 806 0 l 81 0 l 81 1038 l 715 1038 l 715 917 l 209 917 l 209 580 l 715 580 l 715 458 l 209 458 l 209 121 z "},"F":{"ha":766,"x_min":81,"x_max":705,"o":"m 705 917 l 209 917 l 209 580 l 690 580 l 690 458 l 209 458 l 209 0 l 81 0 l 81 1038 l 705 1038 l 705 917 z "},"G":{"ha":994,"x_min":41,"x_max":933,"o":"m 583 1067 q 839 1027 718 1067 l 839 892 q 572 945 712 945 q 417 915 491 945 q 287 828 344 885 q 199 696 229 770 q 168 538 168 621 q 199 378 168 454 q 290 243 231 302 q 425 153 349 184 q 583 121 500 121 l 806 121 l 806 473 l 578 473 l 578 594 l 933 594 l 933 0 l 572 0 q 368 40 465 0 q 195 155 271 80 q 81 326 121 230 q 41 528 41 422 q 81 733 41 635 q 199 907 122 831 q 375 1026 276 985 q 583 1067 473 1067 z "},"H":{"ha":978,"x_min":81,"x_max":897,"o":"m 769 1038 l 897 1038 l 897 0 l 769 0 l 769 473 l 208 473 l 208 0 l 81 0 l 81 1038 l 208 1038 l 208 594 l 769 594 l 769 1038 z "},"I":{"ha":331,"x_min":102,"x_max":229,"o":"m 102 0 l 102 1038 l 229 1038 l 229 0 l 102 0 z "},"J":{"ha":416,"x_min":20,"x_max":355,"o":"m 228 1038 l 355 1038 l 355 223 q 281 46 355 120 q 121 -28 214 -21 q 99 -29 114 -29 q 20 -17 58 -29 l 20 130 q 110 92 58 92 q 193 126 159 92 q 228 213 228 160 l 228 1038 z "},"K":{"ha":799,"x_min":61,"x_max":738,"o":"m 547 1038 l 700 1038 l 326 565 l 505 565 q 671 497 603 565 q 738 334 738 430 l 738 0 l 610 0 l 610 323 q 575 409 610 374 q 488 444 541 444 l 189 444 l 189 0 l 61 0 l 61 1038 l 125 1038 l 189 1038 l 189 585 l 547 1038 z "},"L":{"ha":731,"x_min":81,"x_max":691,"o":"m 691 0 l 81 0 l 81 1038 l 209 1038 l 209 121 l 691 121 l 691 0 z "},"M":{"ha":1328,"x_min":81,"x_max":1246,"o":"m 1246 0 l 1119 0 l 1119 774 q 660 323 883 562 l 209 760 l 209 0 l 81 0 l 81 1068 l 668 498 l 1246 1067 l 1246 0 z "},"N":{"ha":1068,"x_min":81,"x_max":987,"o":"m 987 -33 l 209 752 l 209 0 l 81 0 l 81 1066 l 860 283 l 860 1038 l 987 1038 l 987 -33 z "},"O":{"ha":1186,"x_min":41,"x_max":1145,"o":"m 598 90 q 759 121 682 90 q 894 212 835 153 q 986 349 954 272 q 1018 512 1018 427 q 985 678 1018 599 q 890 819 952 758 q 751 913 829 880 q 587 945 673 945 q 427 914 503 945 q 292 823 351 882 q 199 686 231 763 q 168 523 168 608 q 200 357 168 436 q 295 216 233 277 q 434 122 356 155 q 598 90 513 90 m 634 -30 q 587 -32 610 -32 q 377 9 477 -32 q 199 128 277 51 q 82 304 123 205 q 41 512 41 403 q 82 723 41 623 q 203 903 124 824 q 384 1024 282 982 q 598 1067 486 1067 q 809 1025 709 1067 q 986 907 909 984 q 1104 731 1063 830 q 1145 523 1145 631 q 1103 312 1145 412 q 983 132 1061 211 q 823 20 912 62 q 634 -30 733 -22 z "},"P":{"ha":850,"x_min":81,"x_max":810,"o":"m 209 471 l 469 471 q 615 530 554 471 q 682 689 682 594 q 615 850 682 783 q 457 917 549 917 l 209 917 l 209 471 m 209 0 l 81 0 l 81 1038 l 469 1038 q 711 939 611 1038 q 784 829 758 891 q 810 699 810 767 q 781 562 810 629 q 701 448 753 497 q 487 351 611 362 q 457 350 468 350 l 209 350 l 209 0 z "},"Q":{"ha":1223,"x_min":41,"x_max":1203,"o":"m 634 92 q 848 172 753 101 l 721 298 l 817 387 l 939 264 q 1018 513 1018 375 q 985 679 1018 600 q 891 820 953 758 q 752 913 830 881 q 588 946 673 946 q 552 945 575 946 q 292 824 399 932 q 200 687 232 764 q 168 524 168 609 q 201 357 168 437 q 296 216 234 278 q 435 123 357 155 q 599 90 513 90 q 634 92 611 90 m 1203 0 l 1023 0 l 932 88 q 635 -29 800 -16 q 587 -31 611 -31 q 377 10 477 -31 q 199 129 277 52 q 82 304 123 205 q 41 513 41 404 q 83 724 41 623 q 203 903 125 825 q 385 1025 283 983 q 599 1067 487 1067 q 809 1026 709 1067 q 987 907 909 985 q 1104 732 1063 831 q 1145 524 1145 633 q 1024 178 1145 329 l 1203 0 z "},"R":{"ha":884,"x_min":81,"x_max":884,"o":"m 600 530 q 667 688 667 593 q 600 850 667 783 q 442 916 534 916 l 208 916 l 208 471 l 453 471 q 600 530 540 471 m 766 562 q 686 448 738 497 q 524 359 617 381 l 884 0 l 701 0 l 351 350 l 209 350 l 209 0 l 81 0 l 81 1038 l 454 1038 q 696 938 597 1038 q 795 699 795 840 q 766 562 795 627 z "},"S":{"ha":806,"x_min":20,"x_max":765,"o":"m 355 466 q 155 558 229 498 q 62 756 62 637 q 157 978 62 886 q 380 1067 252 1067 q 581 1029 491 1067 q 740 922 666 994 l 645 833 q 522 917 585 890 q 369 945 453 945 q 243 896 295 945 q 189 767 189 843 q 243 652 189 699 q 397 584 295 610 l 458 568 q 666 477 592 536 q 765 278 765 399 q 669 61 765 151 q 463 -31 583 -20 q 433 -32 452 -32 q 210 9 316 -32 q 20 127 103 50 l 113 217 q 265 122 180 155 q 444 90 351 90 q 583 143 526 90 q 637 268 637 195 q 580 381 637 334 q 416 450 524 425 l 355 466 z "},"T":{"ha":736,"x_min":20,"x_max":715,"o":"m 715 1038 l 715 917 l 432 917 l 432 0 l 304 0 l 304 917 l 20 917 l 20 1038 l 715 1038 z "},"U":{"ha":894,"x_min":81,"x_max":812,"o":"m 473 -29 q 441 -30 463 -30 q 303 -3 369 -30 q 186 75 237 24 q 81 327 81 180 l 81 1038 l 209 1038 l 209 338 q 281 163 209 235 q 453 92 353 92 q 616 159 549 92 q 686 328 686 229 l 686 1038 l 812 1038 l 812 338 q 705 79 812 187 q 473 -29 608 -18 z "},"V":{"ha":955,"x_min":20,"x_max":935,"o":"m 478 -32 l 20 1038 l 162 1038 l 482 292 l 802 1038 l 935 1038 l 478 -32 z "},"W":{"ha":1175,"x_min":0,"x_max":1175,"o":"m 1044 1038 l 1175 1038 l 785 -30 l 587 374 l 390 -28 l 0 1038 l 138 1038 l 412 293 l 592 661 l 772 294 l 1044 1038 z "},"X":{"ha":859,"x_min":0,"x_max":859,"o":"m 500 583 l 859 0 l 705 0 l 424 458 l 142 0 l 0 0 l 353 573 l 67 1038 l 220 1038 l 429 698 l 639 1038 l 781 1038 l 500 583 z "},"Y":{"ha":879,"x_min":20,"x_max":859,"o":"m 379 501 l 20 1038 l 177 1038 l 446 636 l 714 1038 l 859 1038 l 507 510 l 507 1 l 379 1 l 379 501 z "},"Z":{"ha":836,"x_min":0,"x_max":815,"o":"m 806 0 l 0 0 l 593 917 l 55 917 l 55 1038 l 815 1038 l 222 121 l 806 121 l 806 0 z "},"[":{"ha":407,"x_min":81,"x_max":407,"o":"m 407 -465 l 81 -465 l 81 1246 l 407 1246 l 407 1139 l 195 1139 l 195 -357 l 407 -357 l 407 -465 z "},"\\":{"ha":732,"x_min":-20,"x_max":753,"o":"m 753 -323 l 629 -323 l -20 1067 l 103 1067 l 753 -323 z "},"]":{"ha":407,"x_min":0,"x_max":326,"o":"m 0 -465 l 0 -357 l 212 -357 l 212 1139 l 0 1139 l 0 1246 l 326 1246 l 326 -465 l 0 -465 z "},"^":{"ha":743,"x_min":20,"x_max":722,"o":"m 373 1074 l 722 499 l 606 499 l 368 892 l 127 493 l 20 493 l 373 1074 z "},"_":{"ha":1037,"x_min":0,"x_max":1037,"o":"m 0 -125 l 0 -58 l 1037 -58 l 1037 -125 l 0 -125 z "},"`":{"ha":340,"x_min":41,"x_max":299,"o":"m 213 1111 l 41 1318 l 180 1318 l 299 1111 l 213 1111 z "},"a":{"ha":670,"x_min":20,"x_max":609,"o":"m 296 75 q 496 157 435 75 l 496 283 q 286 357 408 357 q 177 317 220 357 q 134 220 134 277 q 180 119 134 161 q 296 75 229 75 m 140 642 l 609 642 l 609 0 l 496 0 l 496 25 q 448 0 473 11 q 322 -31 387 -26 q 311 -32 318 -31 q 298 -33 304 -33 q 286 -33 292 -33 q 98 37 176 -33 q 20 212 20 109 q 102 391 20 317 q 296 467 186 467 q 496 416 414 467 l 496 540 l 140 540 l 140 642 z "},"b":{"ha":709,"x_min":61,"x_max":688,"o":"m 606 564 q 688 322 688 473 q 604 75 688 169 q 395 -32 518 -21 q 371 -33 379 -33 q 174 27 264 -33 l 174 0 l 61 0 l 61 1038 l 174 1038 l 174 602 q 246 641 208 626 q 380 667 313 667 q 606 564 513 667 m 174 494 l 174 145 q 258 95 204 115 q 363 75 313 75 q 515 141 450 75 q 575 313 575 202 q 512 490 575 425 q 353 559 444 559 q 253 541 304 559 q 174 494 203 522 z "},"c":{"ha":600,"x_min":41,"x_max":559,"o":"m 559 139 l 559 10 q 419 -32 494 -26 q 389 -33 399 -33 q 141 68 243 -33 q 41 313 41 169 q 144 562 41 458 q 261 640 195 613 q 398 667 326 667 q 559 629 484 667 l 559 489 q 389 559 488 559 q 223 491 292 559 q 154 322 154 422 q 227 146 154 219 q 398 75 298 75 q 559 139 492 75 z "},"d":{"ha":708,"x_min":20,"x_max":647,"o":"m 534 1038 l 647 1038 l 647 0 l 534 0 l 534 32 q 462 -7 500 8 q 355 -33 408 -28 q 328 -33 346 -33 q 102 70 195 -33 q 20 312 20 161 q 105 559 20 465 q 212 640 152 612 q 338 667 272 667 q 534 607 444 667 l 534 1038 m 534 140 l 534 490 q 451 540 503 521 q 347 559 399 559 q 193 494 259 559 q 133 321 133 433 q 197 144 133 210 q 358 75 265 75 q 456 93 407 75 q 534 140 505 111 z "},"e":{"ha":661,"x_min":61,"x_max":620,"o":"m 174 108 l 620 108 l 620 0 l 61 0 l 61 642 l 499 642 l 499 535 l 174 535 l 174 375 l 532 375 l 532 267 l 174 267 l 174 108 z "},"f":{"ha":382,"x_min":20,"x_max":361,"o":"m 352 1066 l 352 955 q 329 959 342 959 q 244 924 279 959 q 208 834 208 888 l 208 642 l 361 642 l 361 534 l 208 534 l 208 0 l 94 0 l 94 534 l 20 534 l 20 642 l 94 642 l 94 825 q 165 995 94 924 q 339 1067 237 1067 q 346 1066 341 1067 q 352 1066 350 1066 z "},"g":{"ha":758,"x_min":41,"x_max":718,"o":"m 555 -181 q 599 -130 599 -159 q 599 -130 599 -130 q 548 -71 599 -98 q 374 -34 478 -34 q 333 -35 347 -34 q 203 -69 256 -41 q 159 -121 159 -92 q 210 -180 159 -152 q 384 -216 279 -216 q 555 -181 488 -216 m 223 145 q 384 74 291 74 q 538 141 474 74 q 604 312 604 211 q 535 488 604 415 q 374 559 468 559 q 357 558 362 559 q 220 492 277 552 q 154 321 154 422 q 223 145 154 218 m 608 26 q 712 -120 712 -28 q 682 -209 712 -169 q 602 -275 653 -248 q 424 -321 528 -313 q 374 -323 399 -323 q 150 -276 241 -323 q 73 -212 100 -250 q 45 -130 45 -174 q 75 -41 45 -81 q 156 24 104 -2 q 176 34 166 31 q 136 69 151 54 q 41 312 41 170 q 139 561 41 457 q 251 640 188 612 q 384 667 315 667 l 682 667 l 682 559 l 627 559 q 718 321 718 459 q 618 73 718 177 q 581 39 601 54 q 608 26 600 31 z "},"h":{"ha":715,"x_min":61,"x_max":654,"o":"m 61 0 l 61 1038 l 174 1038 l 174 576 q 419 673 277 673 q 586 604 517 673 q 654 440 654 536 l 654 0 l 541 0 l 541 431 q 501 526 541 487 q 409 565 463 565 q 243 496 312 565 q 174 327 174 427 l 174 0 l 61 0 z "},"i":{"ha":290,"x_min":81,"x_max":208,"o":"m 100 806 q 91 815 100 806 q 81 850 81 824 q 100 896 81 877 q 144 914 118 914 q 190 896 171 914 q 208 850 208 877 q 190 806 208 824 q 144 787 171 787 q 100 806 118 787 m 88 0 l 88 642 l 201 642 l 201 0 l 88 0 z "},"j":{"ha":313,"x_min":-1,"x_max":232,"o":"m 111 642 l 224 642 l 224 -83 q 153 -252 224 -182 q 0 -323 90 -316 q -1 -323 0 -323 l -1 -216 q 75 -181 43 -214 q 111 -92 111 -146 l 111 642 m 123 807 q 114 816 123 807 q 105 852 105 825 q 123 897 105 878 q 168 915 142 915 q 213 897 195 915 q 232 852 232 878 q 213 807 232 825 q 168 789 195 789 q 123 807 142 789 z "},"k":{"ha":602,"x_min":61,"x_max":541,"o":"m 322 642 l 446 642 l 319 419 q 475 353 411 417 q 541 195 541 287 l 541 0 l 428 0 l 428 185 q 391 275 428 237 q 304 311 354 311 l 174 311 l 174 0 l 61 0 l 61 1038 l 174 1038 l 174 383 l 322 642 z "},"l":{"ha":276,"x_min":81,"x_max":195,"o":"m 81 0 l 81 1038 l 195 1038 l 195 0 l 81 0 z "},"m":{"ha":877,"x_min":61,"x_max":816,"o":"m 816 0 l 703 0 l 703 407 l 435 143 l 174 394 l 174 0 l 61 0 l 61 667 l 441 298 l 816 667 l 816 0 z "},"n":{"ha":716,"x_min":61,"x_max":655,"o":"m 655 -33 l 174 406 l 174 0 l 61 0 l 61 668 l 542 230 l 542 642 l 655 642 l 655 -33 z "},"o":{"ha":787,"x_min":41,"x_max":747,"o":"m 369 559 q 223 491 283 551 q 154 322 154 422 q 227 146 154 219 q 399 75 298 75 q 418 75 412 75 q 564 143 504 83 q 633 313 633 212 q 561 488 633 415 q 389 559 489 559 q 369 559 376 559 m 419 -32 q 389 -33 399 -33 q 141 68 243 -33 q 41 313 41 169 q 144 562 41 458 q 261 640 195 613 q 398 667 326 667 q 646 566 544 667 q 747 322 747 465 q 720 187 747 252 q 642 72 692 122 q 419 -32 550 -22 z "},"p":{"ha":709,"x_min":61,"x_max":688,"o":"m 606 564 q 688 322 688 473 q 604 75 688 169 q 395 -32 518 -21 q 371 -33 379 -33 q 174 27 264 -33 l 174 -323 l 61 -323 l 61 629 l 174 629 l 174 602 q 246 641 208 626 q 380 667 313 667 q 606 564 513 667 m 174 494 l 174 145 q 258 95 204 115 q 363 75 313 75 q 515 141 450 75 q 575 313 575 202 q 512 490 575 425 q 353 559 444 559 q 253 541 304 559 q 174 494 203 522 z "},"q":{"ha":775,"x_min":41,"x_max":795,"o":"m 418 78 q 521 111 473 82 l 458 174 l 543 252 l 602 194 q 633 315 633 248 q 561 490 633 418 q 389 562 489 562 q 369 562 376 562 q 224 494 283 554 q 154 325 154 425 q 227 149 154 222 q 399 77 298 77 q 418 78 412 77 m 795 0 l 633 0 l 596 36 q 419 -29 517 -21 q 389 -31 399 -31 q 142 71 243 -31 q 41 315 41 172 q 68 450 41 385 q 145 565 95 515 q 261 643 196 616 q 399 670 327 670 q 646 568 544 670 q 747 325 747 467 q 679 117 747 210 l 795 0 z "},"r":{"ha":431,"x_min":61,"x_max":410,"o":"m 410 667 l 410 667 l 410 559 q 243 492 311 559 q 174 322 174 422 l 174 0 l 61 0 l 61 642 l 174 642 l 174 571 q 410 667 274 664 z "},"s":{"ha":564,"x_min":20,"x_max":544,"o":"m 328 -33 q 305 -33 320 -33 q 20 65 138 -33 l 99 149 q 315 75 189 75 q 405 107 371 75 q 431 164 431 132 q 391 227 431 203 q 295 260 351 252 l 252 267 q 104 335 158 283 q 50 460 50 387 q 113 605 50 545 q 270 667 179 667 q 509 576 411 667 l 427 495 q 260 559 358 559 q 189 532 218 559 q 163 470 163 508 q 193 410 163 435 q 280 374 226 383 l 323 367 q 472 310 414 352 q 544 173 544 256 q 481 34 544 93 q 328 -33 419 -25 z "},"t":{"ha":457,"x_min":41,"x_max":416,"o":"m 416 534 l 260 534 l 260 208 q 300 113 260 153 q 393 75 338 75 l 414 75 l 414 -33 l 382 -33 q 214 35 283 -33 q 147 199 147 102 l 147 534 l 41 534 l 41 642 l 147 642 l 147 1038 l 260 1038 l 260 642 l 416 642 l 416 534 z "},"u":{"ha":602,"x_min":61,"x_max":541,"o":"m 317 -32 q 296 -33 303 -33 q 129 36 198 -33 q 61 199 61 104 l 61 642 l 174 642 l 174 209 q 214 114 174 153 q 306 75 252 75 q 391 110 357 75 q 427 199 427 146 l 427 642 l 541 642 l 541 209 q 470 39 541 110 q 317 -32 405 -24 z "},"v":{"ha":604,"x_min":0,"x_max":604,"o":"m 302 -34 l 0 642 l 127 642 l 306 243 l 484 642 l 604 642 l 302 -34 z "},"w":{"ha":804,"x_min":20,"x_max":784,"o":"m 784 642 l 527 -33 l 526 -33 l 401 208 l 278 -33 l 277 -33 l 20 642 l 144 642 l 297 241 l 406 454 l 515 242 l 667 642 l 784 642 z "},"x":{"ha":660,"x_min":20,"x_max":640,"o":"m 600 642 l 393 345 l 640 0 l 497 0 l 322 244 l 151 0 l 20 0 l 256 336 l 38 642 l 180 642 l 326 437 l 469 642 l 600 642 z "},"y":{"ha":654,"x_min":20,"x_max":634,"o":"m 515 642 l 634 642 l 208 -323 l 89 -323 l 273 93 l 20 642 l 148 642 l 335 233 l 515 642 z "},"z":{"ha":585,"x_min":20,"x_max":564,"o":"m 549 0 l 20 0 l 366 534 l 61 534 l 61 642 l 564 642 l 218 108 l 549 108 l 549 0 z "},"{":{"ha":349,"x_min":81,"x_max":410,"o":"m 377 -400 l 410 -508 q 259 -481 322 -508 q 154 -397 195 -454 q 100 -201 100 -323 q 101 -176 100 -185 q 169 120 107 -47 q 208 275 208 223 q 196 321 208 305 q 104 351 176 351 l 81 351 l 81 458 l 114 458 q 197 481 180 458 q 208 525 208 496 q 205 556 208 541 q 168 681 199 599 q 100 1001 100 868 q 161 1208 100 1128 q 271 1291 203 1263 q 410 1316 332 1316 l 377 1208 q 275 1192 319 1208 q 218 1149 239 1177 q 181 1010 181 1102 q 243 724 181 893 q 288 533 288 603 q 254 422 288 467 q 241 408 249 415 q 259 387 252 397 q 288 286 288 346 q 243 92 288 216 q 182 -172 187 -60 q 181 -193 181 -179 q 217 -332 181 -281 q 377 -400 265 -398 z "},"|":{"ha":405,"x_min":163,"x_max":242,"o":"m 163 -323 l 163 1067 l 242 1067 l 241 -323 l 163 -323 z "},"}":{"ha":349,"x_min":-61,"x_max":267,"o":"m -28 1208 l -61 1316 q 90 1289 26 1316 q 195 1206 154 1262 q 248 1010 248 1131 q 248 985 248 994 q 180 688 241 855 q 141 533 141 585 q 153 487 141 503 q 245 458 173 458 l 267 458 l 267 350 l 235 350 q 152 328 169 350 q 141 283 141 313 q 144 252 141 268 q 180 127 150 210 q 249 -193 249 -60 q 187 -400 249 -320 q 77 -482 145 -454 q -61 -508 16 -507 l -28 -400 q 73 -383 30 -400 q 130 -341 110 -369 q 168 -201 168 -294 q 105 84 168 -85 q 60 275 60 205 q 95 387 60 342 q 107 401 100 393 q 90 421 97 411 q 60 523 60 463 q 106 716 60 592 q 167 980 161 869 q 168 1002 168 987 q 132 1140 168 1090 q -28 1208 83 1206 z "},"~":{"ha":731,"x_min":94,"x_max":637,"o":"m 637 1232 q 581 1108 623 1152 q 472 1063 538 1063 q 394 1080 435 1063 q 317 1113 353 1097 q 252 1130 280 1130 q 190 1067 195 1130 l 94 1067 q 151 1191 108 1147 q 260 1236 194 1236 q 338 1219 297 1236 q 415 1186 378 1202 q 479 1169 452 1169 q 541 1232 536 1169 l 637 1232 z "},"¡":{"ha":315,"x_min":81,"x_max":233,"o":"m 87 0 l 112 766 l 205 766 l 229 0 l 87 0 m 81 962 q 103 1016 81 994 q 157 1038 125 1038 q 211 1016 189 1038 q 233 962 233 993 q 211 908 233 930 q 157 886 189 886 q 103 908 125 886 q 81 962 81 930 z "},"¢":{"ha":473,"x_min":41,"x_max":452,"o":"m 371 167 l 450 96 q 337 31 402 48 l 337 -129 l 224 -129 l 224 29 q 109 92 157 44 q 41 256 41 160 q 112 426 41 355 q 224 490 160 474 l 224 652 l 337 652 l 337 492 q 452 429 404 477 l 368 351 q 275 390 329 390 q 190 355 225 390 q 154 266 154 319 q 193 170 154 210 q 286 132 232 132 q 371 167 336 132 z "},"£":{"ha":709,"x_min":41,"x_max":669,"o":"m 266 108 l 669 108 l 669 0 l 46 0 l 45 108 q 171 161 120 108 q 224 297 224 216 q 203 473 224 370 l 41 473 l 41 579 l 182 579 q 166 760 166 677 q 253 975 166 885 q 468 1067 342 1067 q 661 1028 574 1067 l 606 930 q 458 959 540 959 q 333 905 385 959 q 293 847 307 878 q 279 770 279 817 q 298 579 279 676 l 576 579 l 576 473 l 320 473 q 338 307 338 378 q 266 108 338 192 z "},"¨":{"ha":512,"x_min":41,"x_max":472,"o":"m 41 1255 q 59 1300 41 1281 q 104 1318 77 1318 q 148 1300 130 1318 q 167 1255 167 1281 q 148 1211 167 1229 q 104 1192 130 1192 q 59 1211 77 1192 q 41 1255 41 1229 m 345 1255 q 363 1300 345 1281 q 408 1318 382 1318 q 453 1300 434 1318 q 472 1255 472 1281 q 453 1211 472 1229 q 408 1192 435 1192 q 363 1211 382 1192 q 345 1255 345 1229 z "},"©":{"ha":1156,"x_min":41,"x_max":1116,"o":"m 620 -13 q 574 -15 597 -15 q 369 25 467 -15 q 196 141 271 66 q 81 313 121 216 q 41 516 41 410 q 82 722 41 623 q 199 897 123 821 q 375 1015 275 973 q 583 1056 474 1056 q 787 1016 690 1056 q 960 900 885 975 q 1076 728 1036 825 q 1116 524 1116 631 q 1075 319 1116 417 q 958 144 1034 221 q 620 -13 817 4 m 583 79 q 749 112 670 79 q 889 206 828 144 q 984 348 951 269 q 1017 516 1017 428 q 983 687 1017 605 q 886 831 949 768 q 743 928 824 894 q 574 962 662 962 q 407 929 486 962 q 267 835 328 897 q 173 693 205 774 q 140 524 140 612 q 173 354 140 435 q 270 209 207 272 q 413 113 332 146 q 583 79 494 79 m 766 363 l 766 250 q 636 210 707 216 q 609 209 618 209 q 387 300 478 209 q 319 401 342 344 q 295 520 295 458 q 389 745 295 651 q 617 840 484 840 q 766 804 698 840 l 766 680 q 609 746 700 746 q 458 684 520 746 q 394 529 394 620 q 460 369 394 435 q 617 303 526 303 q 766 363 704 303 z "},"®":{"ha":1156,"x_min":41,"x_max":1116,"o":"m 620 -15 q 574 -17 597 -17 q 369 23 467 -17 q 196 139 271 64 q 81 311 121 214 q 41 514 41 408 q 82 720 41 621 q 199 895 123 819 q 375 1013 275 971 q 583 1054 474 1054 q 787 1014 690 1054 q 960 898 885 973 q 1076 726 1036 823 q 1116 522 1116 629 q 1075 317 1116 415 q 958 142 1034 219 q 620 -15 817 2 m 583 77 q 749 110 670 77 q 889 204 828 142 q 984 346 951 267 q 1017 514 1017 426 q 983 685 1017 603 q 886 829 949 766 q 743 926 824 892 q 574 960 662 960 q 407 927 486 960 q 267 833 328 895 q 173 691 205 772 q 140 522 140 610 q 174 352 140 433 q 271 207 208 270 q 414 111 333 144 q 583 77 494 77 m 745 480 q 673 435 715 451 l 865 243 l 722 243 l 544 422 l 465 422 l 465 243 l 366 243 l 366 827 l 608 827 q 751 769 693 827 q 809 629 809 711 q 745 480 809 541 m 465 516 l 609 516 q 678 544 648 516 q 711 621 711 574 q 677 701 711 667 q 600 733 645 733 l 465 733 l 465 516 z "},"°":{"ha":300,"x_min":20,"x_max":279,"o":"m 204 962 q 193 974 204 962 q 150 985 182 985 q 96 962 118 985 q 74 909 74 940 q 96 855 74 878 q 150 833 118 833 q 204 855 182 833 q 226 909 226 878 q 204 962 226 940 m 241 817 q 222 798 241 817 q 150 779 203 779 q 58 817 96 779 q 20 909 20 855 q 58 1000 20 962 q 150 1038 96 1038 q 241 1000 203 1038 q 279 909 279 962 q 241 817 279 855 z "},"´":{"ha":340,"x_min":41,"x_max":299,"o":"m 127 1111 l 41 1111 l 159 1318 l 299 1318 l 127 1111 z "},"·":{"ha":233,"x_min":41,"x_max":193,"o":"m 193 522 q 171 468 193 490 q 117 446 149 446 q 63 468 85 446 q 41 522 41 491 q 63 575 41 553 q 117 597 85 597 q 171 575 149 597 q 193 522 193 553 z "},"¸":{"ha":423,"x_min":43,"x_max":380,"o":"m 333 -153 q 380 -267 380 -201 q 330 -387 380 -336 q 222 -437 285 -432 q 208 -438 217 -438 q 90 -390 138 -438 q 43 -275 43 -342 l 142 -275 q 165 -321 146 -302 q 216 -344 187 -344 q 261 -325 242 -344 q 281 -276 281 -304 q 258 -222 281 -245 q 208 -200 237 -200 l 130 -200 l 263 30 l 372 30 l 285 -120 q 333 -153 313 -133 z "},"¿":{"ha":715,"x_min":41,"x_max":695,"o":"m 134 94 q 41 320 41 187 q 137 552 41 456 q 311 644 210 625 l 311 791 l 425 791 l 425 542 l 363 542 q 216 481 277 542 q 154 330 154 419 q 219 172 154 237 q 373 108 283 108 q 520 169 459 108 q 582 320 582 231 l 583 320 l 695 320 q 599 98 692 191 q 363 0 501 0 q 134 94 228 0 m 419 1045 q 430 1034 419 1045 q 441 991 441 1023 q 419 937 441 959 q 366 915 397 915 q 312 937 334 915 q 290 991 290 959 q 312 1045 290 1023 q 366 1067 334 1067 q 419 1045 397 1067 z "},"Á":{"ha":1130,"x_min":-20,"x_max":1150,"o":"m 492 1111 l 406 1111 l 524 1318 l 664 1318 l 492 1111 m 562 806 l 371 458 l 752 458 l 562 806 m 303 337 l 118 0 l -20 0 l 567 1068 l 1150 0 l 1002 0 l 818 337 l 303 337 z "},"Â":{"ha":1130,"x_min":-20,"x_max":1150,"o":"m 497 1318 l 637 1318 l 779 1111 l 692 1111 l 567 1259 l 442 1111 l 356 1111 l 497 1318 m 562 806 l 371 458 l 752 458 l 562 806 m 303 337 l 118 0 l -20 0 l 567 1068 l 1150 0 l 1002 0 l 818 337 l 303 337 z "},"Ã":{"ha":1130,"x_min":-20,"x_max":1150,"o":"m 829 1318 q 772 1194 815 1238 q 664 1149 730 1149 q 586 1166 627 1149 q 509 1199 545 1183 q 444 1216 472 1216 q 382 1153 387 1216 l 286 1153 q 343 1277 300 1233 q 452 1322 386 1322 q 530 1305 489 1322 q 607 1272 570 1289 q 671 1255 644 1255 q 733 1318 728 1255 l 829 1318 m 562 806 l 371 458 l 752 458 l 562 806 m 303 337 l 118 0 l -20 0 l 567 1068 l 1150 0 l 1002 0 l 818 337 l 303 337 z "},"Ä":{"ha":1130,"x_min":-20,"x_max":1150,"o":"m 351 1214 q 370 1258 351 1240 q 414 1277 388 1277 q 459 1258 440 1277 q 477 1214 477 1240 q 459 1169 477 1187 q 414 1151 440 1151 q 370 1169 388 1151 q 351 1214 351 1187 m 656 1214 q 674 1258 656 1240 q 719 1277 692 1277 q 764 1258 745 1277 q 783 1214 783 1240 q 764 1169 783 1187 q 719 1151 745 1151 q 674 1169 692 1151 q 656 1214 656 1187 m 562 806 l 371 458 l 752 458 l 562 806 m 303 337 l 118 0 l -20 0 l 567 1068 l 1150 0 l 1002 0 l 818 337 l 303 337 z "},"Å":{"ha":1130,"x_min":-20,"x_max":1150,"o":"m 621 1294 q 610 1305 621 1294 q 567 1316 599 1316 q 513 1294 535 1316 q 491 1240 491 1272 q 513 1186 491 1208 q 567 1164 535 1164 q 621 1186 599 1164 q 643 1240 643 1208 q 621 1294 643 1272 m 659 1149 q 640 1130 659 1149 q 567 1111 621 1111 q 475 1149 513 1111 q 437 1240 437 1187 q 475 1332 437 1294 q 567 1370 513 1370 q 659 1332 621 1370 q 696 1240 696 1294 q 659 1149 696 1187 m 562 806 l 371 458 l 752 458 l 562 806 m 303 337 l 118 0 l -20 0 l 567 1068 l 1150 0 l 1002 0 l 818 337 l 303 337 z "},"Ç":{"ha":951,"x_min":41,"x_max":890,"o":"m 612 -121 q 660 -235 660 -169 q 610 -355 660 -304 q 501 -406 564 -400 q 487 -406 496 -406 q 370 -358 418 -406 q 322 -243 322 -311 l 422 -243 q 444 -290 425 -271 q 495 -312 467 -312 q 541 -293 522 -312 q 561 -244 561 -273 q 538 -190 561 -213 q 487 -168 516 -168 l 410 -168 l 543 62 l 652 62 l 564 -88 q 612 -121 592 -101 m 890 208 l 890 57 q 635 -31 772 -20 q 587 -32 619 -32 q 377 9 477 -32 q 199 127 277 50 q 82 303 123 204 q 41 512 41 403 q 83 723 41 623 q 203 903 125 824 q 385 1024 283 982 q 599 1067 487 1067 q 890 983 758 1067 l 890 819 q 751 913 829 880 q 587 945 673 945 q 427 913 504 945 q 292 823 351 882 q 200 685 232 763 q 168 522 168 608 q 201 356 168 435 q 295 216 233 277 q 435 122 356 155 q 599 90 513 90 q 756 120 681 90 q 890 208 831 151 z "},"È":{"ha":847,"x_min":81,"x_max":806,"o":"m 416 1111 l 243 1318 l 383 1318 l 502 1111 l 416 1111 m 209 121 l 806 121 l 806 0 l 81 0 l 81 1038 l 715 1038 l 715 917 l 209 917 l 209 580 l 715 580 l 715 458 l 209 458 l 209 121 z "},"É":{"ha":847,"x_min":81,"x_max":806,"o":"m 398 1112 l 312 1112 l 431 1319 l 570 1319 l 398 1112 m 209 121 l 806 121 l 806 0 l 81 0 l 81 1038 l 715 1038 l 715 917 l 209 917 l 209 580 l 715 580 l 715 458 l 209 458 l 209 121 z "},"Ê":{"ha":847,"x_min":81,"x_max":806,"o":"m 328 1318 l 468 1318 l 610 1111 l 524 1111 l 398 1259 l 273 1111 l 187 1111 l 328 1318 m 209 121 l 806 121 l 806 0 l 81 0 l 81 1038 l 715 1038 l 715 917 l 209 917 l 209 580 l 715 580 l 715 458 l 209 458 l 209 121 z "},"Ë":{"ha":847,"x_min":81,"x_max":806,"o":"m 183 1213 q 201 1257 183 1238 q 246 1276 220 1276 q 291 1257 272 1276 q 309 1213 309 1238 q 291 1168 309 1186 q 246 1149 272 1149 q 201 1168 220 1149 q 183 1213 183 1186 m 488 1213 q 506 1257 488 1238 q 551 1276 524 1276 q 595 1257 576 1276 q 614 1213 614 1238 q 596 1168 614 1186 q 551 1149 577 1149 q 506 1168 524 1149 q 488 1213 488 1186 m 209 121 l 806 121 l 806 0 l 81 0 l 81 1038 l 715 1038 l 715 917 l 209 917 l 209 580 l 715 580 l 715 458 l 209 458 l 209 121 z "},"Ì":{"ha":331,"x_min":-9,"x_max":249,"o":"m 163 1111 l -9 1318 l 130 1318 l 249 1111 l 163 1111 m 102 0 l 102 1038 l 229 1038 l 229 0 l 102 0 z "},"Í":{"ha":331,"x_min":72,"x_max":330,"o":"m 158 1111 l 72 1111 l 191 1318 l 330 1318 l 158 1111 m 102 0 l 102 1038 l 229 1038 l 229 0 l 102 0 z "},"Î":{"ha":331,"x_min":-45,"x_max":377,"o":"m 96 1318 l 235 1318 l 377 1111 l 291 1111 l 165 1259 l 41 1111 l -45 1111 l 96 1318 m 102 0 l 102 1038 l 229 1038 l 229 0 l 102 0 z "},"Ï":{"ha":331,"x_min":-50,"x_max":381,"o":"m -50 1213 q -32 1257 -50 1238 q 13 1276 -14 1276 q 57 1257 39 1276 q 76 1213 76 1238 q 57 1168 76 1186 q 13 1149 39 1149 q -32 1168 -14 1149 q -50 1213 -50 1186 m 254 1213 q 273 1257 254 1238 q 317 1276 291 1276 q 362 1257 343 1276 q 381 1213 381 1238 q 362 1168 381 1186 q 317 1149 344 1149 q 273 1168 291 1149 q 254 1213 254 1186 m 102 0 l 102 1038 l 229 1038 l 229 0 l 102 0 z "},"Ñ":{"ha":1068,"x_min":81,"x_max":987,"o":"m 784 1318 q 728 1194 770 1238 q 619 1149 685 1149 q 541 1166 582 1149 q 464 1199 500 1183 q 399 1216 427 1216 q 337 1153 342 1216 l 241 1153 q 298 1277 255 1233 q 407 1322 341 1322 q 485 1305 444 1322 q 562 1272 526 1289 q 627 1255 599 1255 q 688 1318 684 1255 l 784 1318 m 987 -33 l 209 752 l 209 0 l 81 0 l 81 1066 l 860 283 l 860 1038 l 987 1038 l 987 -33 z "},"Ò":{"ha":1186,"x_min":41,"x_max":1145,"o":"m 650 1112 l 477 1319 l 617 1319 l 736 1112 l 650 1112 m 598 90 q 759 121 682 90 q 894 212 835 153 q 986 349 954 272 q 1018 512 1018 427 q 985 678 1018 599 q 890 819 952 758 q 751 913 829 880 q 587 945 673 945 q 427 914 503 945 q 292 823 351 882 q 199 686 231 763 q 168 523 168 608 q 200 357 168 436 q 295 216 233 277 q 434 122 356 155 q 598 90 513 90 m 634 -30 q 587 -32 610 -32 q 377 9 477 -32 q 199 128 277 51 q 82 304 123 205 q 41 512 41 403 q 82 723 41 623 q 203 903 124 824 q 384 1024 282 982 q 598 1067 486 1067 q 809 1025 709 1067 q 986 907 909 984 q 1104 731 1063 830 q 1145 523 1145 631 q 1103 312 1145 412 q 983 132 1061 211 q 823 20 912 62 q 634 -30 733 -22 z "},"Ó":{"ha":1186,"x_min":41,"x_max":1145,"o":"m 523 1112 l 437 1112 l 555 1319 l 695 1319 l 523 1112 m 598 90 q 759 121 682 90 q 894 212 835 153 q 986 349 954 272 q 1018 512 1018 427 q 985 678 1018 599 q 890 819 952 758 q 751 913 829 880 q 587 945 673 945 q 427 914 503 945 q 292 823 351 882 q 199 686 231 763 q 168 523 168 608 q 200 357 168 436 q 295 216 233 277 q 434 122 356 155 q 598 90 513 90 m 634 -30 q 587 -32 610 -32 q 377 9 477 -32 q 199 128 277 51 q 82 304 123 205 q 41 512 41 403 q 82 723 41 623 q 203 903 124 824 q 384 1024 282 982 q 598 1067 486 1067 q 809 1025 709 1067 q 986 907 909 984 q 1104 731 1063 830 q 1145 523 1145 631 q 1103 312 1145 412 q 983 132 1061 211 q 823 20 912 62 q 634 -30 733 -22 z "},"Ô":{"ha":1186,"x_min":41,"x_max":1145,"o":"m 528 1318 l 668 1318 l 810 1111 l 724 1111 l 598 1259 l 473 1111 l 387 1111 l 528 1318 m 598 90 q 759 121 682 90 q 894 212 835 153 q 986 349 954 272 q 1018 512 1018 427 q 985 678 1018 599 q 890 819 952 758 q 751 913 829 880 q 587 945 673 945 q 427 914 503 945 q 292 823 351 882 q 199 686 231 763 q 168 523 168 608 q 200 357 168 436 q 295 216 233 277 q 434 122 356 155 q 598 90 513 90 m 634 -30 q 587 -32 610 -32 q 377 9 477 -32 q 199 128 277 51 q 82 304 123 205 q 41 512 41 403 q 82 723 41 623 q 203 903 124 824 q 384 1024 282 982 q 598 1067 486 1067 q 809 1025 709 1067 q 986 907 909 984 q 1104 731 1063 830 q 1145 523 1145 631 q 1103 312 1145 412 q 983 132 1061 211 q 823 20 912 62 q 634 -30 733 -22 z "},"Õ":{"ha":1186,"x_min":41,"x_max":1145,"o":"m 859 1318 q 803 1194 846 1238 q 694 1149 760 1149 q 616 1166 657 1149 q 539 1199 576 1183 q 475 1216 503 1216 q 412 1153 417 1216 l 317 1153 q 373 1277 330 1233 q 482 1322 416 1322 q 560 1305 519 1322 q 637 1272 601 1289 q 702 1255 674 1255 q 764 1318 759 1255 l 859 1318 m 598 90 q 759 121 682 90 q 894 212 835 153 q 986 349 954 272 q 1018 512 1018 427 q 985 678 1018 599 q 890 819 952 758 q 751 913 829 880 q 587 945 673 945 q 427 914 503 945 q 292 823 351 882 q 199 686 231 763 q 168 523 168 608 q 200 357 168 436 q 295 216 233 277 q 434 122 356 155 q 598 90 513 90 m 634 -30 q 587 -32 610 -32 q 377 9 477 -32 q 199 128 277 51 q 82 304 123 205 q 41 512 41 403 q 82 723 41 623 q 203 903 124 824 q 384 1024 282 982 q 598 1067 486 1067 q 809 1025 709 1067 q 986 907 909 984 q 1104 731 1063 830 q 1145 523 1145 631 q 1103 312 1145 412 q 983 132 1061 211 q 823 20 912 62 q 634 -30 733 -22 z "},"Ö":{"ha":1186,"x_min":41,"x_max":1145,"o":"m 382 1213 q 401 1257 382 1238 q 446 1276 419 1276 q 490 1257 471 1276 q 509 1213 509 1238 q 490 1168 509 1186 q 446 1149 471 1149 q 401 1168 419 1149 q 382 1213 382 1186 m 687 1213 q 705 1257 687 1238 q 750 1276 724 1276 q 795 1257 776 1276 q 814 1213 814 1238 q 795 1168 814 1186 q 750 1149 777 1149 q 705 1168 724 1149 q 687 1213 687 1186 m 598 90 q 759 121 682 90 q 894 212 835 153 q 986 349 954 272 q 1018 512 1018 427 q 985 678 1018 599 q 890 819 952 758 q 751 913 829 880 q 587 945 673 945 q 427 914 503 945 q 292 823 351 882 q 199 686 231 763 q 168 523 168 608 q 200 357 168 436 q 295 216 233 277 q 434 122 356 155 q 598 90 513 90 m 634 -30 q 587 -32 610 -32 q 377 9 477 -32 q 199 128 277 51 q 82 304 123 205 q 41 512 41 403 q 82 723 41 623 q 203 903 124 824 q 384 1024 282 982 q 598 1067 486 1067 q 809 1025 709 1067 q 986 907 909 984 q 1104 731 1063 830 q 1145 523 1145 631 q 1103 312 1145 412 q 983 132 1061 211 q 823 20 912 62 q 634 -30 733 -22 z "},"Ù":{"ha":894,"x_min":81,"x_max":812,"o":"m 448 1111 l 275 1318 l 415 1318 l 534 1111 l 448 1111 m 473 -29 q 441 -30 463 -30 q 303 -3 369 -30 q 186 75 237 24 q 81 327 81 180 l 81 1038 l 209 1038 l 209 338 q 281 163 209 235 q 453 92 353 92 q 616 159 549 92 q 686 328 686 229 l 686 1038 l 812 1038 l 812 338 q 705 79 812 187 q 473 -29 608 -18 z "},"Ú":{"ha":894,"x_min":81,"x_max":812,"o":"m 408 1111 l 321 1111 l 440 1318 l 580 1318 l 408 1111 m 473 -29 q 441 -30 463 -30 q 303 -3 369 -30 q 186 75 237 24 q 81 327 81 180 l 81 1038 l 209 1038 l 209 338 q 281 163 209 235 q 453 92 353 92 q 616 159 549 92 q 686 328 686 229 l 686 1038 l 812 1038 l 812 338 q 705 79 812 187 q 473 -29 608 -18 z "},"Û":{"ha":894,"x_min":81,"x_max":812,"o":"m 377 1318 l 517 1318 l 659 1111 l 572 1111 l 447 1259 l 322 1111 l 236 1111 l 377 1318 m 473 -29 q 441 -30 463 -30 q 303 -3 369 -30 q 186 75 237 24 q 81 327 81 180 l 81 1038 l 209 1038 l 209 338 q 281 163 209 235 q 453 92 353 92 q 616 159 549 92 q 686 328 686 229 l 686 1038 l 812 1038 l 812 338 q 705 79 812 187 q 473 -29 608 -18 z "},"Ü":{"ha":894,"x_min":81,"x_max":812,"o":"m 231 1213 q 250 1257 231 1238 q 294 1276 268 1276 q 339 1257 320 1276 q 357 1213 357 1238 q 339 1168 357 1186 q 294 1149 320 1149 q 250 1168 268 1149 q 231 1213 231 1186 m 536 1213 q 554 1257 536 1238 q 599 1276 572 1276 q 644 1257 625 1276 q 663 1213 663 1238 q 644 1168 663 1186 q 599 1149 625 1149 q 554 1168 572 1149 q 536 1213 536 1186 m 473 -29 q 441 -30 463 -30 q 303 -3 369 -30 q 186 75 237 24 q 81 327 81 180 l 81 1038 l 209 1038 l 209 338 q 281 163 209 235 q 453 92 353 92 q 616 159 549 92 q 686 328 686 229 l 686 1038 l 812 1038 l 812 338 q 705 79 812 187 q 473 -29 608 -18 z "},"Ý":{"ha":879,"x_min":20,"x_max":859,"o":"m 421 1112 l 335 1112 l 454 1319 l 593 1319 l 421 1112 m 379 501 l 20 1038 l 177 1038 l 446 636 l 714 1038 l 859 1038 l 507 510 l 507 1 l 379 1 l 379 501 z "},"à":{"ha":670,"x_min":20,"x_max":609,"o":"m 332 750 l 159 958 l 299 958 l 418 750 l 332 750 m 296 75 q 496 157 435 75 l 496 283 q 286 357 408 357 q 177 317 220 357 q 134 220 134 277 q 180 119 134 161 q 296 75 229 75 m 140 642 l 609 642 l 609 0 l 496 0 l 496 25 q 448 0 473 11 q 322 -31 387 -26 q 311 -32 318 -31 q 298 -33 304 -33 q 286 -33 292 -33 q 98 37 176 -33 q 20 212 20 109 q 102 391 20 317 q 296 467 186 467 q 496 416 414 467 l 496 540 l 140 540 l 140 642 z "},"á":{"ha":670,"x_min":20,"x_max":609,"o":"m 368 750 l 282 750 l 401 958 l 541 958 l 368 750 m 296 75 q 496 157 435 75 l 496 283 q 286 357 408 357 q 177 317 220 357 q 134 220 134 277 q 180 119 134 161 q 296 75 229 75 m 140 642 l 609 642 l 609 0 l 496 0 l 496 25 q 448 0 473 11 q 322 -31 387 -26 q 311 -32 318 -31 q 298 -33 304 -33 q 286 -33 292 -33 q 98 37 176 -33 q 20 212 20 109 q 102 391 20 317 q 296 467 186 467 q 496 416 414 467 l 496 540 l 140 540 l 140 642 z "},"â":{"ha":670,"x_min":20,"x_max":609,"o":"m 304 958 l 444 958 l 586 750 l 500 750 l 374 899 l 250 750 l 163 750 l 304 958 m 296 75 q 496 157 435 75 l 496 283 q 286 357 408 357 q 177 317 220 357 q 134 220 134 277 q 180 119 134 161 q 296 75 229 75 m 140 642 l 609 642 l 609 0 l 496 0 l 496 25 q 448 0 473 11 q 322 -31 387 -26 q 311 -32 318 -31 q 298 -33 304 -33 q 286 -33 292 -33 q 98 37 176 -33 q 20 212 20 109 q 102 391 20 317 q 296 467 186 467 q 496 416 414 467 l 496 540 l 140 540 l 140 642 z "},"ã":{"ha":670,"x_min":20,"x_max":633,"o":"m 633 919 q 577 794 620 839 q 469 750 534 750 q 391 767 431 750 q 313 800 350 783 q 249 817 277 817 q 186 753 191 817 l 91 753 q 148 878 104 833 q 256 922 191 922 q 334 906 294 922 q 412 872 375 889 q 476 856 448 856 q 538 919 533 856 l 633 919 m 296 75 q 496 157 435 75 l 496 283 q 286 357 408 357 q 177 317 220 357 q 134 220 134 277 q 180 119 134 161 q 296 75 229 75 m 140 642 l 609 642 l 609 0 l 496 0 l 496 25 q 448 0 473 11 q 322 -31 387 -26 q 311 -32 318 -31 q 298 -33 304 -33 q 286 -33 292 -33 q 98 37 176 -33 q 20 212 20 109 q 102 391 20 317 q 296 467 186 467 q 496 416 414 467 l 496 540 l 140 540 l 140 642 z "},"ä":{"ha":670,"x_min":20,"x_max":609,"o":"m 159 813 q 177 858 159 839 q 222 876 195 876 q 266 858 248 876 q 285 813 285 839 q 266 768 285 787 q 222 750 248 750 q 177 768 195 750 q 159 813 159 787 m 463 813 q 481 858 463 839 q 526 876 500 876 q 571 858 552 876 q 590 813 590 839 q 571 768 590 787 q 526 750 553 750 q 481 768 500 750 q 463 813 463 787 m 296 75 q 496 157 435 75 l 496 283 q 286 357 408 357 q 177 317 220 357 q 134 220 134 277 q 180 119 134 161 q 296 75 229 75 m 140 642 l 609 642 l 609 0 l 496 0 l 496 25 q 448 0 473 11 q 322 -31 387 -26 q 311 -32 318 -31 q 298 -33 304 -33 q 286 -33 292 -33 q 98 37 176 -33 q 20 212 20 109 q 102 391 20 317 q 296 467 186 467 q 496 416 414 467 l 496 540 l 140 540 l 140 642 z "},"å":{"ha":670,"x_min":20,"x_max":609,"o":"m 429 933 q 418 945 429 933 q 375 956 407 956 q 321 933 343 956 q 299 880 299 911 q 321 826 299 848 q 375 804 343 804 q 429 826 407 804 q 451 880 451 848 q 429 933 451 911 m 467 788 q 448 769 467 788 q 375 750 429 750 q 283 788 321 750 q 245 880 245 826 q 283 971 245 933 q 375 1009 321 1009 q 467 971 429 1009 q 505 880 505 933 q 467 788 505 826 m 296 75 q 496 157 435 75 l 496 283 q 286 357 408 357 q 177 317 220 357 q 134 220 134 277 q 180 119 134 161 q 296 75 229 75 m 140 642 l 609 642 l 609 0 l 496 0 l 496 25 q 448 0 473 11 q 322 -31 387 -26 q 311 -32 318 -31 q 298 -33 304 -33 q 286 -33 292 -33 q 98 37 176 -33 q 20 212 20 109 q 102 391 20 317 q 296 467 186 467 q 496 416 414 467 l 496 540 l 140 540 l 140 642 z "},"ç":{"ha":600,"x_min":41,"x_max":559,"o":"m 418 -99 q 455 -189 455 -137 q 416 -284 455 -244 q 330 -324 380 -320 q 318 -325 326 -325 q 225 -286 264 -325 q 188 -196 188 -249 l 267 -196 q 284 -232 269 -217 q 325 -250 302 -250 q 361 -235 346 -250 q 377 -196 377 -219 q 359 -153 377 -172 q 318 -136 341 -136 l 257 -136 l 362 46 l 449 46 l 380 -73 q 418 -99 402 -83 m 559 139 l 559 10 q 419 -32 494 -26 q 389 -33 399 -33 q 141 68 243 -33 q 41 313 41 169 q 144 562 41 458 q 261 640 195 613 q 398 667 326 667 q 559 629 484 667 l 559 489 q 389 559 488 559 q 223 491 292 559 q 154 322 154 422 q 227 146 154 219 q 398 75 298 75 q 559 139 492 75 z "},"è":{"ha":661,"x_min":61,"x_max":620,"o":"m 290 750 l 118 958 l 258 958 l 376 750 l 290 750 m 174 108 l 620 108 l 620 0 l 61 0 l 61 642 l 499 642 l 499 535 l 174 535 l 174 375 l 532 375 l 532 267 l 174 267 l 174 108 z "},"é":{"ha":661,"x_min":61,"x_max":620,"o":"m 277 750 l 191 750 l 310 958 l 450 958 l 277 750 m 174 108 l 620 108 l 620 0 l 61 0 l 61 642 l 499 642 l 499 535 l 174 535 l 174 375 l 532 375 l 532 267 l 174 267 l 174 108 z "},"ê":{"ha":661,"x_min":61,"x_max":620,"o":"m 210 958 l 350 958 l 492 750 l 406 750 l 280 899 l 155 750 l 69 750 l 210 958 m 174 108 l 620 108 l 620 0 l 61 0 l 61 642 l 499 642 l 499 535 l 174 535 l 174 375 l 532 375 l 532 267 l 174 267 l 174 108 z "},"ë":{"ha":661,"x_min":61,"x_max":620,"o":"m 64 813 q 83 858 64 839 q 127 876 101 876 q 172 858 153 876 q 191 813 191 839 q 172 768 191 787 q 127 750 153 750 q 83 768 101 750 q 64 813 64 787 m 369 813 q 387 858 369 839 q 432 876 406 876 q 477 858 458 876 q 496 813 496 839 q 477 768 496 787 q 432 750 458 750 q 387 768 406 750 q 369 813 369 787 m 174 108 l 620 108 l 620 0 l 61 0 l 61 642 l 499 642 l 499 535 l 174 535 l 174 375 l 532 375 l 532 267 l 174 267 l 174 108 z "},"ì":{"ha":275,"x_min":-34,"x_max":224,"o":"m 138 750 l -34 958 l 106 958 l 224 750 l 138 750 m 81 0 l 81 642 l 195 642 l 195 0 l 81 0 z "},"í":{"ha":275,"x_min":61,"x_max":319,"o":"m 147 750 l 61 750 l 180 958 l 319 958 l 147 750 m 81 0 l 81 642 l 195 642 l 195 0 l 81 0 z "},"î":{"ha":275,"x_min":-73,"x_max":349,"o":"m 68 958 l 208 958 l 349 750 l 263 750 l 138 899 l 13 750 l -73 750 l 68 958 m 81 0 l 81 642 l 195 642 l 195 0 l 81 0 z "},"ï":{"ha":275,"x_min":-78,"x_max":353,"o":"m -78 813 q -60 858 -78 839 q -15 876 -41 876 q 30 858 11 876 q 48 813 48 839 q 30 768 48 787 q -15 750 11 750 q -60 768 -41 750 q -78 813 -78 787 m 227 813 q 245 858 227 839 q 290 876 263 876 q 334 858 315 876 q 353 813 353 839 q 335 768 353 787 q 290 750 316 750 q 245 768 263 750 q 227 813 227 787 m 81 0 l 81 642 l 195 642 l 195 0 l 81 0 z "},"ñ":{"ha":716,"x_min":61,"x_max":655,"o":"m 623 920 q 566 795 609 840 q 458 751 524 751 q 380 767 420 751 q 302 801 339 784 q 238 817 266 817 q 176 754 180 817 l 80 754 q 137 879 94 834 q 245 923 180 923 q 323 906 283 923 q 401 873 364 890 q 465 857 437 857 q 527 920 522 857 l 623 920 m 655 -33 l 174 406 l 174 0 l 61 0 l 61 668 l 542 230 l 542 642 l 655 642 l 655 -33 z "},"ò":{"ha":787,"x_min":41,"x_max":747,"o":"m 438 750 l 266 958 l 406 958 l 524 750 l 438 750 m 369 559 q 223 491 283 551 q 154 322 154 422 q 227 146 154 219 q 399 75 298 75 q 418 75 412 75 q 564 143 504 83 q 633 313 633 212 q 561 488 633 415 q 389 559 489 559 q 369 559 376 559 m 419 -32 q 389 -33 399 -33 q 141 68 243 -33 q 41 313 41 169 q 144 562 41 458 q 261 640 195 613 q 398 667 326 667 q 646 566 544 667 q 747 322 747 465 q 720 187 747 252 q 642 72 692 122 q 419 -32 550 -22 z "},"ó":{"ha":787,"x_min":41,"x_max":747,"o":"m 376 750 l 290 750 l 409 958 l 549 958 l 376 750 m 369 559 q 223 491 283 551 q 154 322 154 422 q 227 146 154 219 q 399 75 298 75 q 418 75 412 75 q 564 143 504 83 q 633 313 633 212 q 561 488 633 415 q 389 559 489 559 q 369 559 376 559 m 419 -32 q 389 -33 399 -33 q 141 68 243 -33 q 41 313 41 169 q 144 562 41 458 q 261 640 195 613 q 398 667 326 667 q 646 566 544 667 q 747 322 747 465 q 720 187 747 252 q 642 72 692 122 q 419 -32 550 -22 z "},"ô":{"ha":787,"x_min":41,"x_max":747,"o":"m 328 958 l 468 958 l 610 750 l 524 750 l 398 899 l 273 750 l 187 750 l 328 958 m 369 559 q 223 491 283 551 q 154 322 154 422 q 227 146 154 219 q 399 75 298 75 q 418 75 412 75 q 564 143 504 83 q 633 313 633 212 q 561 488 633 415 q 389 559 489 559 q 369 559 376 559 m 419 -32 q 389 -33 399 -33 q 141 68 243 -33 q 41 313 41 169 q 144 562 41 458 q 261 640 195 613 q 398 667 326 667 q 646 566 544 667 q 747 322 747 465 q 720 187 747 252 q 642 72 692 122 q 419 -32 550 -22 z "},"õ":{"ha":787,"x_min":41,"x_max":747,"o":"m 660 919 q 604 794 646 839 q 495 750 561 750 q 417 767 458 750 q 340 800 376 783 q 275 817 303 817 q 213 753 218 817 l 117 753 q 174 878 131 833 q 283 922 217 922 q 361 906 320 922 q 438 872 401 889 q 503 856 475 856 q 564 919 559 856 l 660 919 m 369 559 q 223 491 283 551 q 154 322 154 422 q 227 146 154 219 q 399 75 298 75 q 418 75 412 75 q 564 143 504 83 q 633 313 633 212 q 561 488 633 415 q 389 559 489 559 q 369 559 376 559 m 419 -32 q 389 -33 399 -33 q 141 68 243 -33 q 41 313 41 169 q 144 562 41 458 q 261 640 195 613 q 398 667 326 667 q 646 566 544 667 q 747 322 747 465 q 720 187 747 252 q 642 72 692 122 q 419 -32 550 -22 z "},"ö":{"ha":787,"x_min":41,"x_max":747,"o":"m 182 813 q 201 858 182 839 q 245 876 219 876 q 290 858 271 876 q 309 813 309 839 q 290 768 309 787 q 245 750 271 750 q 201 768 219 750 q 182 813 182 787 m 487 813 q 505 858 487 839 q 550 876 524 876 q 595 858 576 876 q 614 813 614 839 q 595 768 614 787 q 550 750 576 750 q 505 768 524 750 q 487 813 487 787 m 369 559 q 223 491 283 551 q 154 322 154 422 q 227 146 154 219 q 399 75 298 75 q 418 75 412 75 q 564 143 504 83 q 633 313 633 212 q 561 488 633 415 q 389 559 489 559 q 369 559 376 559 m 419 -32 q 389 -33 399 -33 q 141 68 243 -33 q 41 313 41 169 q 144 562 41 458 q 261 640 195 613 q 398 667 326 667 q 646 566 544 667 q 747 322 747 465 q 720 187 747 252 q 642 72 692 122 q 419 -32 550 -22 z "},"ù":{"ha":602,"x_min":61,"x_max":541,"o":"m 315 750 l 142 958 l 282 958 l 401 750 l 315 750 m 317 -32 q 296 -33 303 -33 q 129 36 198 -33 q 61 199 61 104 l 61 642 l 174 642 l 174 209 q 214 114 174 153 q 306 75 252 75 q 391 110 357 75 q 427 199 427 146 l 427 642 l 541 642 l 541 209 q 470 39 541 110 q 317 -32 405 -24 z "},"ú":{"ha":602,"x_min":61,"x_max":541,"o":"m 306 750 l 220 750 l 338 958 l 478 958 l 306 750 m 317 -32 q 296 -33 303 -33 q 129 36 198 -33 q 61 199 61 104 l 61 642 l 174 642 l 174 209 q 214 114 174 153 q 306 75 252 75 q 391 110 357 75 q 427 199 427 146 l 427 642 l 541 642 l 541 209 q 470 39 541 110 q 317 -32 405 -24 z "},"û":{"ha":602,"x_min":61,"x_max":541,"o":"m 231 958 l 370 958 l 512 750 l 426 750 l 300 899 l 176 750 l 90 750 l 231 958 m 317 -32 q 296 -33 303 -33 q 129 36 198 -33 q 61 199 61 104 l 61 642 l 174 642 l 174 209 q 214 114 174 153 q 306 75 252 75 q 391 110 357 75 q 427 199 427 146 l 427 642 l 541 642 l 541 209 q 470 39 541 110 q 317 -32 405 -24 z "},"ü":{"ha":602,"x_min":61,"x_max":541,"o":"m 85 813 q 104 858 85 839 q 149 876 122 876 q 193 858 174 876 q 212 813 212 839 q 193 768 212 787 q 149 750 174 750 q 104 768 122 750 q 85 813 85 787 m 390 813 q 408 858 390 839 q 453 876 427 876 q 498 858 479 876 q 517 813 517 839 q 498 768 517 787 q 453 750 479 750 q 408 768 427 750 q 390 813 390 787 m 317 -32 q 296 -33 303 -33 q 129 36 198 -33 q 61 199 61 104 l 61 642 l 174 642 l 174 209 q 214 114 174 153 q 306 75 252 75 q 391 110 357 75 q 427 199 427 146 l 427 642 l 541 642 l 541 209 q 470 39 541 110 q 317 -32 405 -24 z "},"ý":{"ha":654,"x_min":20,"x_max":634,"o":"m 350 750 l 264 750 l 382 958 l 522 958 l 350 750 m 515 642 l 634 642 l 208 -323 l 89 -323 l 273 93 l 20 642 l 148 642 l 335 233 l 515 642 z "},"ÿ":{"ha":654,"x_min":20,"x_max":634,"o":"m 111 813 q 130 858 111 839 q 174 876 148 876 q 219 858 200 876 q 237 813 237 839 q 219 768 237 787 q 174 750 200 750 q 130 768 148 750 q 111 813 111 787 m 416 813 q 434 858 416 839 q 479 876 452 876 q 524 858 505 876 q 543 813 543 839 q 524 768 543 787 q 479 750 505 750 q 434 768 452 750 q 416 813 416 787 m 515 642 l 634 642 l 208 -323 l 89 -323 l 273 93 l 20 642 l 148 642 l 335 233 l 515 642 z "},"˚":{"ha":300,"x_min":20,"x_max":279,"o":"m 204 1294 q 193 1305 204 1294 q 150 1316 182 1316 q 96 1294 118 1316 q 74 1240 74 1272 q 96 1186 74 1208 q 150 1164 118 1164 q 204 1186 182 1164 q 226 1240 226 1208 q 204 1294 226 1272 m 241 1149 q 222 1130 241 1149 q 150 1111 203 1111 q 58 1149 96 1111 q 20 1240 20 1187 q 58 1332 20 1294 q 150 1370 96 1370 q 241 1332 203 1370 q 279 1240 279 1294 q 241 1149 279 1187 z "},"ˆ":{"ha":500,"x_min":39,"x_max":462,"o":"m 180 1318 l 320 1318 l 462 1111 l 376 1111 l 250 1259 l 125 1111 l 39 1111 l 180 1318 z "},"ı":{"ha":275,"x_min":81,"x_max":195,"o":"m 81 0 l 81 642 l 195 642 l 195 0 l 81 0 z "},"ﬂ":{"ha":597,"x_min":41,"x_max":536,"o":"m 372 1066 l 372 955 q 349 959 362 959 q 264 924 300 959 q 228 834 228 888 l 228 642 l 382 642 l 382 534 l 228 534 l 228 0 l 115 0 l 115 534 l 41 534 l 41 642 l 115 642 l 115 825 q 185 995 115 924 q 359 1067 257 1067 q 366 1066 362 1067 q 372 1066 370 1066 m 422 0 l 422 1038 l 536 1038 l 536 0 l 422 0 z "},"⁄":{"ha":730,"x_min":-20,"x_max":892,"o":"m 768 1038 l 892 1038 l 104 -323 l -20 -323 l 768 1038 z "},"Ÿ":{"ha":879,"x_min":20,"x_max":859,"o":"m 224 1213 q 242 1257 224 1238 q 287 1276 260 1276 q 331 1257 313 1276 q 350 1213 350 1238 q 331 1168 350 1186 q 287 1149 313 1149 q 242 1168 260 1149 q 224 1213 224 1186 m 528 1213 q 547 1257 528 1238 q 591 1276 565 1276 q 636 1257 617 1276 q 655 1213 655 1238 q 636 1168 655 1186 q 591 1149 618 1149 q 547 1168 565 1149 q 528 1213 528 1186 m 379 501 l 20 1038 l 177 1038 l 446 636 l 714 1038 l 859 1038 l 507 510 l 507 1 l 379 1 l 379 501 z "},"’":{"ha":193,"x_min":41,"x_max":193,"o":"m 181 951 l 98 827 l 71 844 l 109 916 q 60 940 80 919 q 41 991 41 962 q 63 1045 41 1023 q 117 1067 85 1067 q 170 1045 148 1067 q 193 991 193 1023 q 181 951 193 968 z "},"‘":{"ha":193,"x_min":0,"x_max":152,"o":"m 12 951 q 0 991 0 968 q 22 1045 0 1023 q 76 1067 45 1067 q 130 1045 107 1067 q 152 991 152 1023 q 132 940 152 962 q 84 916 113 919 l 122 844 l 95 827 l 12 951 z "},"”":{"ha":409,"x_min":41,"x_max":409,"o":"m 397 951 l 314 827 l 287 844 l 325 916 q 277 940 296 919 q 257 991 257 962 q 279 1045 257 1023 q 333 1067 301 1067 q 387 1045 365 1067 q 409 991 409 1023 q 397 951 409 968 m 181 951 l 98 827 l 71 844 l 109 916 q 60 940 80 919 q 41 991 41 962 q 63 1045 41 1023 q 117 1067 85 1067 q 170 1045 148 1067 q 193 991 193 1023 q 181 951 193 968 z "},"“":{"ha":409,"x_min":0,"x_max":368,"o":"m 12 951 q 0 991 0 968 q 22 1045 0 1023 q 76 1067 45 1067 q 130 1045 107 1067 q 152 991 152 1023 q 132 940 152 962 q 84 916 113 919 l 122 844 l 95 827 l 12 951 m 228 951 q 216 991 216 968 q 238 1045 216 1023 q 292 1067 260 1067 q 346 1045 324 1067 q 368 991 368 1023 q 349 940 368 962 q 300 916 329 919 l 338 844 l 311 827 l 228 951 z "},"—":{"ha":1328,"x_min":81,"x_max":1246,"o":"m 81 276 l 81 384 l 1246 384 l 1246 276 l 81 276 z "},"–":{"ha":943,"x_min":81,"x_max":862,"o":"m 81 276 l 81 384 l 862 384 l 862 276 l 81 276 z "},"…":{"ha":922,"x_min":81,"x_max":841,"o":"m 212 130 q 222 119 212 130 q 233 77 233 109 q 211 22 233 45 q 158 0 189 0 q 104 22 126 0 q 81 77 81 45 q 104 130 81 108 q 158 152 126 152 q 212 130 190 152 m 515 130 q 526 119 515 130 q 537 77 537 109 q 515 22 537 45 q 462 0 493 0 q 408 22 430 0 q 385 77 385 45 q 408 130 385 108 q 462 152 430 152 q 515 130 494 152 m 819 130 q 830 119 819 130 q 841 77 841 109 q 819 22 841 45 q 766 0 797 0 q 711 22 734 0 q 689 77 689 45 q 711 130 689 108 q 766 152 734 152 q 819 130 798 152 z "},"•":{"ha":571,"x_min":163,"x_max":408,"o":"m 373 486 q 391 469 373 486 q 408 400 408 451 q 373 313 408 349 q 287 276 338 276 q 199 313 236 276 q 163 400 163 349 q 199 486 163 451 q 287 522 236 522 q 373 486 338 522 z "},"™":{"ha":769,"x_min":20,"x_max":749,"o":"m 541 817 l 749 1046 l 749 642 l 685 642 l 685 887 l 536 724 l 392 883 l 392 642 l 328 642 l 328 1049 l 541 817 m 20 978 l 20 1038 l 285 1038 l 285 978 l 184 978 l 184 642 l 121 642 l 121 978 l 20 978 z "}}}
